<?xml version="1.0" standalone="no"?>
<!DOCTYPE svg PUBLIC "-//W3C//DTD SVG 1.1//EN" "http://www.w3.org/Graphics/SVG/1.1/DTD/svg11.dtd" >
<svg xmlns="http://www.w3.org/2000/svg" xmlns:xlink="http://www.w3.org/1999/xlink" version="1.1">
<metadata>
Created by FontForge 20170731 at Thu Oct  7 00:18:17 2010
 By Aleksey,,,
Copyright (c) Mark Simonson, 2005. All rights reserved.
</metadata>
<defs>
<font id="ProximaNovaSExCn-Semibold" horiz-adv-x="381" >
  <font-face 
    font-family="Proxima Nova ScOsf ExCn Lt"
    font-weight="600"
    font-stretch="normal"
    units-per-em="1000"
    panose-1="2 0 5 6 3 0 0 2 0 4"
    ascent="800"
    descent="-200"
    x-height="550"
    cap-height="667"
    bbox="-99 -199 734 872"
    underline-thickness="20"
    underline-position="-173"
    unicode-range="U+000D-FB02"
  />
<missing-glyph horiz-adv-x="464" 
d="M408 -90h-351v842h351v-842zM376 -60v782h-288v-782h288z" />
    <glyph glyph-name="fi" unicode="fi" horiz-adv-x="522" 
d="M148 0h-98v550h243v-85h-145v-141h139v-86h-139v-238zM472 0h-98v550h98v-550z" />
    <glyph glyph-name="fl" unicode="fl" horiz-adv-x="636" 
d="M148 0h-98v550h243v-85h-145v-141h139v-86h-139v-238zM617 0h-243v550h98v-465h145v-85z" />
    <glyph glyph-name=".notdef" horiz-adv-x="464" 
d="M408 -90h-351v842h351v-842zM376 -60v782h-288v-782h288z" />
    <glyph glyph-name=".null" horiz-adv-x="0" 
 />
    <glyph glyph-name="nonmarkingreturn" horiz-adv-x="333" 
 />
    <glyph glyph-name="NUL" horiz-adv-x="0" 
 />
    <glyph glyph-name="NUL" horiz-adv-x="0" 
 />
    <glyph glyph-name="CR" unicode="&#xd;" horiz-adv-x="0" 
 />
    <glyph glyph-name="space" unicode=" " horiz-adv-x="165" 
 />
    <glyph glyph-name="exclam" unicode="!" horiz-adv-x="191" 
d="M149 550l-16 -370h-74l-16 370h106zM161 54q0 -26 -19.5 -45t-45.5 -19t-45.5 19t-19.5 45t19.5 45t45.5 19t45.5 -19t19.5 -45z" />
    <glyph glyph-name="quotedbl" unicode="&#x22;" horiz-adv-x="366" 
d="M126 399h-44q-32 208 -32 224q0 22 16 38t38 16t38 -16t16 -38zM284 399h-44q-32 208 -32 224q0 23 16 38.5t38 15.5t38 -15.5t16 -38.5z" />
    <glyph glyph-name="numbersign" unicode="#" 
d="M365 397l-12 -55h-52l-30 -131h53l-13 -55h-54l-35 -156h-67l38 156h-61l-36 -156h-67l37 156h-50l13 55h51l30 131h-51l12 55h52l35 153h67l-36 -153h60l36 153h65l-36 -153h51zM236 342h-61l-30 -131h60z" />
    <glyph glyph-name="dollar" unicode="$" horiz-adv-x="335" 
d="M137 -74v63q-69 6 -121 56l42 75q39 -48 94 -48q26 0 43 18.5t17 49.5q0 28 -18 51.5t-44 43.5t-52 42.5t-44 58.5t-18 81q0 51 27 88.5t74 50.5v72h70v-67q54 -6 99 -43l-38 -75q-34 35 -78 35q-23 0 -38.5 -16.5t-15.5 -44.5q0 -25 18 -47t44 -42t52.5 -43t44.5 -60
t18 -84q0 -55 -28.5 -94t-77.5 -53v-68h-70z" />
    <glyph glyph-name="percent" unicode="%" horiz-adv-x="471" 
d="M230 424q0 -59 -29 -97.5t-77 -38.5t-77 38.5t-29 97.5t29 98.5t77 39.5t77 -39.5t29 -98.5zM454 126q0 -59 -29.5 -98t-76.5 -39q-48 0 -77 39t-29 98q0 60 29 99t77 39q47 0 76.5 -39.5t29.5 -98.5zM383 550l-248 -550h-46l248 550h46zM169 424q0 38 -12 62t-33 24
t-33.5 -24t-12.5 -62q0 -37 12.5 -60.5t33.5 -23.5t33 23t12 61zM394 126q0 38 -12.5 61.5t-33.5 23.5q-22 0 -34.5 -23.5t-12.5 -61.5q0 -37 13 -61t34 -24t33.5 24t12.5 61z" />
    <glyph glyph-name="ampersand" unicode="&#x26;" horiz-adv-x="369" 
d="M373 0h-93q-5 7 -14 20.5t-11 17.5q-47 -49 -107 -49q-55 0 -89.5 41t-34.5 112q0 94 81 163q-29 69 -29 118q0 63 31 101t78 38q41 0 72.5 -32.5t31.5 -83.5q0 -37 -16 -68.5t-31.5 -47t-47.5 -41.5q11 -23 30 -56q18 -31 33 -57q15 44 27 102l68 -29q-19 -85 -51 -144
q26 -38 72 -105zM163 56q28 0 56 39q-31 50 -46 79q-28 49 -34 61q-30 -40 -30 -89q0 -40 16.5 -65t37.5 -25zM153 423q0 -32 13 -68q47 44 47 89q0 26 -8.5 40.5t-19.5 14.5q-32 0 -32 -76z" />
    <glyph glyph-name="quotesingle" unicode="'" horiz-adv-x="208" 
d="M126 399h-44q-32 208 -32 224q0 22 16 38t38 16t38 -16t16 -38z" />
    <glyph glyph-name="parenleft" unicode="(" horiz-adv-x="237" 
d="M217 -169l-68 -30q-102 207 -102 442t102 442l68 -29q-67 -204 -67 -413t67 -412z" />
    <glyph glyph-name="parenright" unicode=")" horiz-adv-x="237" 
d="M87 -199l-67 30q67 203 67 412t-67 413l67 29q103 -206 103 -442t-103 -442z" />
    <glyph glyph-name="asterisk" unicode="*" horiz-adv-x="313" 
d="M182 381h-51l5 113l-95 -61l-26 45l100 51l-100 51l26 45l95 -61l-5 113h51l-5 -113l95 61l26 -45l-101 -51l101 -51l-26 -45l-95 61z" />
    <glyph glyph-name="plus" unicode="+" 
d="M352 306h-128v-149h-67v149h-128v62h128v143h67v-143h128v-62z" />
    <glyph glyph-name="comma" unicode="," horiz-adv-x="241" 
d="M189 32q0 -48 -24.5 -91t-64.5 -71l-43 35q25 15 45 42t24 52q-4 -2 -15 -2q-24 0 -40 16.5t-16 41.5q0 26 18.5 44.5t44.5 18.5q30 0 50.5 -23t20.5 -63z" />
    <glyph glyph-name="hyphen" unicode="-" horiz-adv-x="239" 
d="M208 201h-178v82h178v-82z" />
    <glyph glyph-name="period" unicode="." horiz-adv-x="239" 
d="M120 -10q-26 0 -45.5 19t-19.5 45t19.5 45t45.5 19t45 -19t19 -45t-19 -45t-45 -19z" />
    <glyph glyph-name="slash" unicode="/" horiz-adv-x="216" 
d="M69 -20h-69l147 707h69z" />
    <glyph glyph-name="zero" unicode="0" horiz-adv-x="436" 
d="M401 275q0 -73 -16 -134.5t-59 -107t-108 -45.5q-49 0 -85.5 25.5t-57 68.5t-30 91.5t-9.5 101.5q0 74 16 135.5t59 106.5t107 45q49 0 85.5 -25.5t57 -68t30.5 -91t10 -102.5zM293 275q0 194 -75 194t-75 -194t75 -194t75 194z" />
    <glyph glyph-name="one" unicode="1" horiz-adv-x="324" 
d="M267 0h-104v414l-95 -101l-61 64l169 173h91v-550z" />
    <glyph glyph-name="two" unicode="2" horiz-adv-x="409" 
d="M363 0h-317v88q219 187 219 292q0 39 -19 64t-50 25q-60 0 -97 -73l-69 56q63 110 173 110q76 0 122 -45.5t46 -120.5q0 -133 -185 -304h177v-92z" />
    <glyph glyph-name="three" unicode="3" horiz-adv-x="418" 
d="M203 -129q-60 0 -106.5 30.5t-72.5 79.5l73 60q39 -77 101 -77q81 0 81 108q0 57 -25.5 81.5t-59.5 24.5q-30 0 -39 -2v95q8 -1 35 -1q38 0 60 24.5t22 71.5q0 101 -74 101q-63 0 -96 -70l-70 55q27 52 72 80t99 28q78 0 125 -45t47 -134q0 -53 -28 -97t-73 -56
q47 -10 78 -56t31 -107q0 -87 -47.5 -140.5t-132.5 -53.5z" />
    <glyph glyph-name="four" unicode="4" horiz-adv-x="403" 
d="M388 45h-51v-162h-104v162h-218v94l199 411h123v-413h51v-92zM233 137v288l-132 -288h132z" />
    <glyph glyph-name="five" unicode="5" horiz-adv-x="423" 
d="M208 -129q-63 0 -104.5 27.5t-71.5 82.5l71 60q35 -77 99 -77q37 0 59 37.5t22 89.5q0 127 -73 127q-48 0 -83 -58l-78 22v368h311v-92h-207v-203q32 54 94 54q65 0 104 -56t39 -160q0 -95 -49.5 -158.5t-132.5 -63.5z" />
    <glyph glyph-name="six" unicode="6" horiz-adv-x="421" 
d="M223 -12q-52 0 -89.5 28t-58 78t-30 109t-9.5 130q0 151 51.5 247.5t152.5 96.5q43 0 79.5 -21.5t57.5 -58.5l-57 -73q-26 60 -77 60q-35 0 -58.5 -36.5t-33 -87.5t-9.5 -111v-12q14 38 43 62.5t66 24.5q61 0 100.5 -56t39.5 -158q0 -94 -45.5 -158t-122.5 -64zM217 81
q35 0 51 36t16 89q0 128 -67 128q-48 0 -75 -86q5 -167 75 -167z" />
    <glyph glyph-name="seven" unicode="7" horiz-adv-x="364" 
d="M185 -117h-111l157 575h-212v92h326v-72z" />
    <glyph glyph-name="eight" unicode="8" horiz-adv-x="419" 
d="M210 -12q-86 0 -131.5 46.5t-45.5 129.5q0 59 33 109.5t76 70.5q-41 18 -71 62t-30 102q0 82 48.5 125.5t120.5 43.5q71 0 120 -43.5t49 -125.5q0 -58 -30.5 -101.5t-70.5 -62.5q43 -20 76 -70t33 -109q0 -83 -46 -130t-131 -47zM210 379q10 5 22 15t27.5 37t15.5 59
q0 44 -16.5 69t-48.5 25q-66 0 -66 -94q0 -32 15.5 -59t28 -37.5t22.5 -14.5zM210 81q31 0 51.5 25.5t20.5 72.5q0 51 -27 87t-45 40q-18 -4 -45 -40t-27 -87q0 -47 19.5 -72.5t52.5 -25.5z" />
    <glyph glyph-name="nine" unicode="9" horiz-adv-x="421" 
d="M180 -128q-90 0 -136 80l57 73q26 -60 77 -60q33 0 56.5 35t34 87t10.5 113v12q-15 -38 -43.5 -62.5t-65.5 -24.5q-61 0 -100.5 55.5t-39.5 158.5q0 94 45.5 158t122.5 64q51 0 88.5 -28t58.5 -78t30.5 -109t9.5 -130q0 -151 -52 -247.5t-153 -96.5zM203 215q48 0 75 86
q-3 167 -73 167q-35 0 -52 -36t-17 -89q0 -68 19 -98t48 -30z" />
    <glyph glyph-name="colon" unicode=":" horiz-adv-x="238" 
d="M120 362q-26 0 -45.5 19t-19.5 45t19.5 45t45.5 19t45 -19t19 -45t-19 -45t-45 -19zM120 -10q-26 0 -45.5 19t-19.5 45t19.5 45t45.5 19t45 -19t19 -45t-19 -45t-45 -19z" />
    <glyph glyph-name="semicolon" unicode=";" horiz-adv-x="239" 
d="M120 362q-26 0 -45.5 19t-19.5 45t19.5 45t45.5 19t45 -19t19 -45t-19 -45t-45 -19zM189 35q0 -48 -24.5 -91t-64.5 -72l-43 36q24 14 44.5 41t24.5 52q-1 0 -6.5 -1t-8.5 -1q-24 0 -40 16.5t-16 42.5t18.5 44.5t44.5 18.5q30 0 50.5 -23.5t20.5 -62.5z" />
    <glyph glyph-name="less" unicode="&#x3c;" 
d="M352 158l-323 143v67l323 143v-73l-249 -104l249 -102v-74z" />
    <glyph glyph-name="equal" unicode="=" 
d="M352 399h-323v62h323v-62zM352 207h-323v62h323v-62z" />
    <glyph glyph-name="greater" unicode="&#x3e;" 
d="M352 301l-323 -143v74l249 102l-249 104v73l323 -143v-67z" />
    <glyph glyph-name="question" unicode="?" horiz-adv-x="281" 
d="M267 443q0 -36 -15.5 -66t-34.5 -47.5t-34.5 -41.5t-15.5 -49q0 -20 16 -38l-73 -30q-21 28 -21 67q0 38 20.5 68t40.5 57.5t20 57.5q0 24 -12.5 42t-35.5 18q-29 0 -49 -26l-46 55q44 52 118 52q56 0 89 -33.5t33 -85.5zM208 54q0 -26 -19.5 -45t-45.5 -19t-45 19
t-19 45t19 45t45 19t45.5 -19t19.5 -45z" />
    <glyph glyph-name="at" unicode="@" horiz-adv-x="620" 
d="M267 -70q-108 0 -170 76.5t-62 208.5q0 107 46 205t125 158.5t170 60.5q93 0 151 -65.5t58 -177.5q0 -128 -48 -219.5t-112 -91.5q-33 0 -54.5 18.5t-25.5 49.5l-1 8q-49 -76 -111 -76q-39 0 -66 29.5t-27 96.5q0 69 22.5 134.5t66.5 109.5t98 44q56 0 72 -68l11 52h84
l-56 -263q-3 -15 -3 -25q0 -24 6.5 -34t22.5 -10q11 0 25 16.5t27 46t22 78t9 103.5q0 99 -47 153.5t-126 54.5q-80 0 -150.5 -57t-110.5 -146t-40 -184q0 -113 52 -182t147 -69q72 0 143 56l18 -28q-80 -63 -166 -63zM272 153q26 0 44.5 18.5t37.5 51.5l32 148
q-12 59 -47 59q-34 0 -60.5 -35.5t-38.5 -81.5t-12 -89q0 -71 44 -71z" />
    <glyph glyph-name="A" unicode="A" horiz-adv-x="398" 
d="M395 0h-107l-23 136h-132l-23 -136h-107l136 667h120zM253 228l-54 320l-54 -320h108z" />
    <glyph glyph-name="B" unicode="B" horiz-adv-x="431" 
d="M240 0h-183v667h176q75 0 114 -47t39 -123q0 -123 -93 -153q45 -7 73.5 -54.5t28.5 -109.5q0 -83 -38.5 -131.5t-116.5 -48.5zM208 386q71 0 71 94q0 95 -71 95h-47v-189h47zM212 92q76 0 76 101q0 45 -19 73t-57 28h-51v-202h51z" />
    <glyph glyph-name="C" unicode="C" horiz-adv-x="412" 
d="M230 -12q-98 0 -146 94.5t-48 250.5q0 157 48 251t146 94q35 0 62 -12.5t45 -35.5t28.5 -45t19.5 -52l-84 -31q-12 42 -28 62.5t-43 20.5q-87 0 -87 -252t87 -252q54 0 72 99l85 -31q-39 -161 -157 -161z" />
    <glyph glyph-name="D" unicode="D" horiz-adv-x="455" 
d="M207 0h-150v667h149q108 0 160.5 -91t52.5 -243q0 -153 -52 -243t-160 -90zM206 92q106 0 106 241q0 242 -106 242h-45v-483h45z" />
    <glyph glyph-name="E" unicode="E" horiz-adv-x="367" 
d="M330 0h-273v667h273v-92h-169v-189h162v-92h-162v-202h169v-92z" />
    <glyph glyph-name="F" unicode="F" horiz-adv-x="365" 
d="M161 0h-104v667h273v-92h-169v-189h162v-92h-162v-294z" />
    <glyph glyph-name="G" unicode="G" horiz-adv-x="435" 
d="M230 -12q-97 0 -145.5 92.5t-48.5 252.5t48.5 252.5t145.5 92.5q116 0 155 -145l-84 -31q-11 41 -27 62t-44 21q-87 0 -87 -252t87 -252q43 0 65 35v144h-81v92h174v-280q-62 -84 -158 -84z" />
    <glyph glyph-name="H" unicode="H" horiz-adv-x="463" 
d="M407 0h-105v297h-141v-297h-104v667h104v-278h141v278h105v-667z" />
    <glyph glyph-name="I" unicode="I" horiz-adv-x="218" 
d="M161 0h-104v667h104v-667z" />
    <glyph glyph-name="J" unicode="J" horiz-adv-x="337" 
d="M115 -12q-64 0 -108 40l32 85q26 -32 65 -32q73 0 73 80v506h104v-511q0 -85 -44.5 -126.5t-121.5 -41.5z" />
    <glyph glyph-name="K" unicode="K" horiz-adv-x="448" 
d="M442 0h-119l-119 269l-43 -85v-184h-104v667h104v-325l153 325h115l-165 -315z" />
    <glyph glyph-name="L" unicode="L" horiz-adv-x="351" 
d="M330 0h-273v667h104v-575h169v-92z" />
    <glyph glyph-name="M" unicode="M" horiz-adv-x="591" 
d="M535 0h-103v465l-118 -465h-37l-116 465v-465h-104v667h135l104 -412l106 412h133v-667z" />
    <glyph glyph-name="N" unicode="N" horiz-adv-x="463" 
d="M407 0h-99l-147 426v-426h-104v667h104l141 -415v415h105v-667z" />
    <glyph glyph-name="O" unicode="O" horiz-adv-x="459" 
d="M229 -12q-98 0 -145.5 95t-47.5 250q0 156 47.5 250.5t145.5 94.5q99 0 146.5 -94.5t47.5 -250.5q0 -155 -47.5 -250t-146.5 -95zM229 81q87 0 87 252t-87 252q-86 0 -86 -252t86 -252z" />
    <glyph glyph-name="P" unicode="P" horiz-adv-x="418" 
d="M161 0h-104v667h161q87 0 131.5 -58.5t44.5 -147.5t-44.5 -147.5t-131.5 -58.5h-57v-255zM208 347q38 0 58.5 31t20.5 83t-20.5 83t-58.5 31h-47v-228h47z" />
    <glyph glyph-name="Q" unicode="Q" horiz-adv-x="459" 
d="M229 -12q-98 0 -145.5 95t-47.5 250q0 156 47.5 250.5t145.5 94.5q99 0 146.5 -94.5t47.5 -250.5q0 -216 -83 -300l15 -39l-74 -29l-11 28q-22 -5 -41 -5zM229 81h7l-51 134l74 29l36 -95q21 64 21 184q0 252 -87 252q-86 0 -86 -252t86 -252z" />
    <glyph glyph-name="R" unicode="R" horiz-adv-x="438" 
d="M400 0h-112l-79 255h-48v-255h-104v667h166q75 0 123 -56t48 -147q0 -78 -26.5 -122.5t-62.5 -61.5zM208 347q38 0 58.5 31t20.5 83t-20.5 83t-58.5 31h-47v-228h47z" />
    <glyph glyph-name="S" unicode="S" horiz-adv-x="378" 
d="M175 -12q-100 0 -159 64l47 82q41 -53 106 -53q33 0 54 24t21 62q0 36 -21.5 66t-52.5 53.5t-62 49.5t-52.5 68.5t-21.5 96.5q0 76 47 126.5t125 50.5q81 0 134 -51l-42 -80q-37 38 -89 38q-30 0 -49.5 -21.5t-19.5 -56.5q0 -31 21.5 -59t52.5 -52t62 -52t52.5 -72
t21.5 -99q0 -81 -48 -133t-127 -52z" />
    <glyph glyph-name="T" unicode="T" horiz-adv-x="347" 
d="M225 0h-104v575h-103v92h311v-92h-104v-575z" />
    <glyph glyph-name="U" unicode="U" horiz-adv-x="464" 
d="M232 -12q-76 0 -125.5 49.5t-49.5 146.5v483h104v-488q0 -99 71 -99t71 99v488h104v-483q0 -97 -49.5 -146.5t-125.5 -49.5z" />
    <glyph glyph-name="V" unicode="V" horiz-adv-x="398" 
d="M259 0h-120l-136 667h107l89 -532l89 532h107z" />
    <glyph glyph-name="W" unicode="W" horiz-adv-x="587" 
d="M462 0h-107l-62 466l-61 -466h-107l-111 667h107l62 -483l68 483h85l69 -483l61 483h107z" />
    <glyph glyph-name="X" unicode="X" horiz-adv-x="408" 
d="M408 0h-116l-88 246l-88 -246h-115l143 340l-135 327h115l80 -235l80 235h116l-136 -327z" />
    <glyph glyph-name="Y" unicode="Y" horiz-adv-x="405" 
d="M255 0h-104v279l-154 388h112l94 -285l95 285h110l-153 -388v-279z" />
    <glyph glyph-name="Z" unicode="Z" horiz-adv-x="360" 
d="M330 0h-299v89l175 486h-175v92h292v-85l-178 -490h185v-92z" />
    <glyph glyph-name="bracketleft" unicode="[" horiz-adv-x="195" 
d="M177 -190h-142v868h142v-66h-72v-736h72v-66z" />
    <glyph glyph-name="backslash" unicode="\" horiz-adv-x="216" 
d="M148 -20l-147 707h68l147 -707h-68z" />
    <glyph glyph-name="bracketright" unicode="]" horiz-adv-x="195" 
d="M160 -190h-143v66h73v736h-73v66h143v-868z" />
    <glyph glyph-name="asciicircum" unicode="^" horiz-adv-x="334" 
d="M315 333h-70l-78 257l-78 -257h-70l113 334h70z" />
    <glyph glyph-name="underscore" unicode="_" horiz-adv-x="279" 
d="M282 -106h-285v66h285v-66z" />
    <glyph glyph-name="grave" unicode="`" horiz-adv-x="164" 
d="M164 556h-61l-103 144h85z" />
    <glyph glyph-name="a" unicode="a" horiz-adv-x="347" 
d="M118 550h111l115 -550h-100l-18 110h-105l-18 -110h-101zM214 195l-41 242l-41 -242h82z" />
    <glyph glyph-name="b" unicode="b" horiz-adv-x="369" 
d="M205 0h-155v550h150q66 0 100.5 -39t34.5 -102q0 -98 -76 -124q38 -10 60.5 -48.5t22.5 -87.5q0 -68 -33.5 -108.5t-103.5 -40.5zM185 85q58 0 58 76q0 33 -14.5 55t-43.5 22h-37v-153h37zM182 324q53 0 53 70q0 71 -53 71h-34v-141h34z" />
    <glyph glyph-name="c" unicode="c" horiz-adv-x="371" 
d="M208 -12q-89 0 -132 78.5t-43 208.5t43 208.5t132 78.5q58 0 89.5 -34.5t50.5 -92.5l-79 -26q-22 67 -61 67q-75 0 -75 -201t75 -201q43 0 61 71l79 -25q-18 -60 -49.5 -96t-90.5 -36z" />
    <glyph glyph-name="d" unicode="d" horiz-adv-x="409" 
d="M187 0h-137v550h136q95 0 142.5 -75.5t47.5 -200.5t-47 -199.5t-142 -74.5zM186 85q45 0 68 50.5t23 138.5q0 91 -23.5 141t-67.5 50h-38v-380h38z" />
    <glyph glyph-name="e" unicode="e" horiz-adv-x="326" 
d="M293 0h-243v550h243v-85h-145v-141h139v-86h-139v-153h145v-85z" />
    <glyph glyph-name="f" unicode="f" horiz-adv-x="324" 
d="M148 0h-98v550h243v-85h-145v-141h139v-86h-139v-238z" />
    <glyph glyph-name="g" unicode="g" horiz-adv-x="391" 
d="M207 -12q-87 0 -130.5 77.5t-43.5 209.5q0 133 43.5 210t130.5 77q102 0 140 -127l-78 -26q-10 33 -24 50t-38 17q-74 0 -74 -201t77 -201q36 0 53 27v112h-63v80h151v-234q-59 -71 -144 -71z" />
    <glyph glyph-name="h" unicode="h" horiz-adv-x="415" 
d="M364 0h-97v240h-119v-240h-98v550h98v-225h119v225h97v-550z" />
    <glyph glyph-name="i" unicode="i" horiz-adv-x="198" 
d="M148 0h-98v550h98v-550z" />
    <glyph glyph-name="j" unicode="j" horiz-adv-x="298" 
d="M101 -12q-57 0 -96 36l28 78q24 -28 57 -28q60 0 60 65v411h97v-422q0 -71 -39 -105.5t-107 -34.5z" />
    <glyph glyph-name="k" unicode="k" horiz-adv-x="397" 
d="M391 0h-111l-101 214l-31 -62v-152h-98v550h98v-250l125 250h107l-143 -260z" />
    <glyph glyph-name="l" unicode="l" horiz-adv-x="312" 
d="M293 0h-243v550h98v-465h145v-85z" />
    <glyph glyph-name="m" unicode="m" horiz-adv-x="519" 
d="M469 0h-96v364l-94 -364h-39l-92 364v-364h-98v550h123l87 -339l88 339h121v-550z" />
    <glyph glyph-name="n" unicode="n" horiz-adv-x="409" 
d="M359 0h-95l-116 350v-350h-98v550h101l111 -338v338h97v-550z" />
    <glyph glyph-name="o" unicode="o" horiz-adv-x="416" 
d="M207 -12q-88 0 -131 79t-43 208t43 208t131 79q89 0 132 -79t43 -208t-43 -208t-132 -79zM207 74q75 0 75 201t-75 201q-74 0 -74 -201t74 -201z" />
    <glyph glyph-name="p" unicode="p" horiz-adv-x="363" 
d="M148 0h-98v550h142q74 0 113 -49t39 -123q0 -75 -39 -124t-113 -49h-44v-205zM181 290q31 0 47 24t16 63t-16 63.5t-47 24.5h-33v-175h33z" />
    <glyph glyph-name="q" unicode="q" horiz-adv-x="416" 
d="M207 -12q-88 0 -131 79t-43 208t43 208t131 79q89 0 132 -79t43 -208q0 -177 -75 -249l13 -33l-69 -27l-10 26q-15 -4 -34 -4zM207 74h3l-37 98l69 27l25 -66q15 50 15 142q0 201 -75 201q-74 0 -74 -201t74 -201z" />
    <glyph glyph-name="r" unicode="r" horiz-adv-x="380" 
d="M351 0h-106l-63 205h-34v-205h-98v550h143q71 0 111 -48t40 -123q0 -61 -22 -99.5t-53 -53.5zM181 290q31 0 47 24.5t16 63.5t-16 63t-47 24h-33v-175h33z" />
    <glyph glyph-name="s" unicode="s" horiz-adv-x="335" 
d="M160 -12q-84 0 -144 57l42 75q39 -48 94 -48q26 0 43 18.5t17 49.5q0 28 -18 51.5t-44 43.5t-52 42.5t-44 58.5t-18 81q0 63 40 104t108 41q71 0 122 -44l-38 -75q-34 35 -78 35q-23 0 -38.5 -16.5t-15.5 -44.5q0 -25 18 -47t44 -42t52.5 -43t44.5 -60t18 -84
q0 -67 -42.5 -110t-110.5 -43z" />
    <glyph glyph-name="t" unicode="t" horiz-adv-x="294" 
d="M196 0h-98v465h-83v85h264v-85h-83v-465z" />
    <glyph glyph-name="u" unicode="u" horiz-adv-x="414" 
d="M207 -12q-157 0 -157 212v350h98v-387q0 -89 59 -89t59 89v387h98v-350q0 -212 -157 -212z" />
    <glyph glyph-name="v" unicode="v" horiz-adv-x="347" 
d="M229 0h-111l-116 550h101l70 -413l71 413h100z" />
    <glyph glyph-name="w" unicode="w" horiz-adv-x="514" 
d="M409 0h-99l-53 356l-53 -356h-99l-99 550h100l53 -369l59 369h79l59 -370l53 370h100z" />
    <glyph glyph-name="x" unicode="x" horiz-adv-x="360" 
d="M360 0h-107l-73 198l-73 -198h-107l120 280l-114 270h107l67 -188l66 188h107l-113 -269z" />
    <glyph glyph-name="y" unicode="y" horiz-adv-x="358" 
d="M228 0h-98v230l-132 320h103l78 -222l78 222h103l-132 -320v-230z" />
    <glyph glyph-name="z" unicode="z" horiz-adv-x="309" 
d="M284 0h-259v75l143 390h-143v85h253v-73l-143 -392h149v-85z" />
    <glyph glyph-name="braceleft" unicode="{" horiz-adv-x="212" 
d="M195 -190h-29q-44 0 -76.5 31.5t-32.5 80.5v225q0 29 -13.5 48.5t-38.5 19.5v58q25 0 38.5 19.5t13.5 48.5v224q0 49 32.5 81t76.5 32h29v-66h-29q-16 0 -27.5 -13t-11.5 -34v-232q0 -70 -45 -89q45 -19 45 -89v-233q0 -20 11.5 -33.5t27.5 -13.5h29v-65z" />
    <glyph glyph-name="bar" unicode="|" horiz-adv-x="179" 
d="M122 -20h-65v707h65v-707z" />
    <glyph glyph-name="braceright" unicode="}" horiz-adv-x="212" 
d="M17 -190v65h29q17 0 28 13.5t11 33.5v233q0 70 45 89q-45 19 -45 89v232q0 21 -11 34t-28 13h-29v66h29q44 0 76.5 -32t32.5 -81v-224q0 -29 13.5 -48.5t38.5 -19.5v-58q-25 0 -38.5 -19.5t-13.5 -48.5v-225q0 -49 -32.5 -80.5t-76.5 -31.5h-29z" />
    <glyph glyph-name="asciitilde" unicode="~" horiz-adv-x="407" 
d="M313 667l67 -6q-2 -47 -6.5 -81t-16 -75t-35 -63.5t-58.5 -22.5t-55 29t-25.5 63.5t-15 63.5t-25.5 29q-23 0 -32 -39t-17 -147l-67 7q2 46 7 80.5t16 75t35 63t58 22.5q35 0 55 -29t25.5 -64t15.5 -64t25 -29q23 0 32 39t17 148z" />
    <glyph glyph-name="uni00A0" unicode="&#xa0;" horiz-adv-x="165" 
 />
    <glyph glyph-name="exclamdown" unicode="&#xa1;" horiz-adv-x="191" 
d="M42 0l16 370h74l16 -370h-106zM30 496q0 26 19.5 45t45.5 19t45.5 -19t19.5 -45t-19.5 -45t-45.5 -19t-45.5 19t-19.5 45z" />
    <glyph glyph-name="cent" unicode="&#xa2;" horiz-adv-x="371" 
d="M242 -89h-69v81q-71 15 -105.5 91t-34.5 192t34.5 192t105.5 91v63h69v-63q72 -18 106 -123l-79 -26q-15 42 -31 56v-381q20 17 31 61l79 -25q-33 -112 -106 -128v-81zM133 275q0 -154 44 -190v380q-44 -36 -44 -190z" />
    <glyph glyph-name="sterling" unicode="&#xa3;" horiz-adv-x="335" 
d="M23 228v56h41q-27 69 -27 123q0 68 43 111t102 43q49 0 83.5 -26.5t44.5 -73.5l-74 -28q-15 57 -50 57q-22 0 -37.5 -23.5t-15.5 -60.5q0 -46 28 -122h66v-56h-49q5 -25 5 -44q0 -51 -39 -100q9 6 20 6q18 0 40 -10.5t36 -10.5q33 0 55 26l30 -67q-30 -37 -92 -37
q-31 0 -58.5 15t-42.5 15q-30 0 -68 -28l-29 61q65 43 65 109q0 24 -13 65h-64z" />
    <glyph glyph-name="yen" unicode="&#xa5;" horiz-adv-x="358" 
d="M228 0h-98v111h-110v55h110v63h-110v55h87l-109 266h103l78 -222l78 222h103l-110 -266h88v-55h-110v-63h110v-55h-110v-111z" />
    <glyph glyph-name="brokenbar" unicode="&#xa6;" horiz-adv-x="179" 
d="M122 -20h-65v316h65v-316zM122 371h-65v316h65v-316z" />
    <glyph glyph-name="section" unicode="&#xa7;" horiz-adv-x="331" 
d="M308 308q0 -81 -71 -119q71 -53 71 -132q0 -58 -41.5 -98t-104.5 -40q-92 0 -146 62l41 63q15 -20 41.5 -37t55.5 -17q30 0 47.5 19t17.5 46t-19.5 48.5t-46.5 37.5t-54.5 34t-47 50.5t-19.5 75.5q0 39 22 70.5t60 42.5q-82 56 -82 138q0 55 39 90t96 35q85 0 137 -57
l-40 -57q-41 46 -88 46q-25 0 -40.5 -16t-15.5 -41t19.5 -45t47 -36.5t55 -35t47 -51.5t19.5 -76zM225 288q0 59 -51 94q-59 -13 -59 -66q0 -55 65 -96q45 22 45 68z" />
    <glyph glyph-name="dieresis" unicode="&#xa8;" horiz-adv-x="272" 
d="M267 607q0 -22 -16 -38t-38 -16q-23 0 -38.5 15.5t-15.5 38.5q0 22 16 37.5t38 15.5t38 -15.5t16 -37.5zM113 607q0 -23 -15.5 -38.5t-38.5 -15.5q-22 0 -38 16t-16 38t16 37.5t38 15.5t38 -15.5t16 -37.5z" />
    <glyph glyph-name="copyright" unicode="&#xa9;" horiz-adv-x="778" 
d="M734 334q0 -142 -101 -243.5t-244 -101.5t-244 101.5t-101 243.5t101 243.5t244 101.5t244 -101.5t101 -243.5zM701 334q0 128 -92 220t-220 92t-220 -92t-92 -220t92 -220t220 -92t220 92t92 220zM512 215l28 -26q-57 -67 -147 -67q-87 0 -148 61t-61 151
q0 92 60.5 152.5t148.5 60.5q90 0 146 -66l-27 -27q-20 26 -52 42t-67 16q-70 0 -119.5 -50t-49.5 -128q0 -75 50 -126t119 -51q76 0 119 58z" />
    <glyph glyph-name="ordfeminine" unicode="&#xaa;" horiz-adv-x="292" 
d="M251 326h-70v32q-23 -40 -70 -40q-39 0 -64 27.5t-25 75.5t25 75.5t64 27.5q47 0 70 -37v45q0 61 -52 61q-35 0 -67 -36l-27 47q43 44 108 44q108 0 108 -113v-209zM135 365q32 0 46 33v50q-14 34 -46 34q-20 0 -31.5 -16.5t-11.5 -42.5t11.5 -42t31.5 -16z" />
    <glyph glyph-name="guillemotleft" unicode="&#xab;" horiz-adv-x="359" 
d="M329 63h-75l-90 180l90 177h75l-90 -177zM195 63h-75l-90 180l90 177h75l-90 -177z" />
    <glyph glyph-name="logicalnot" unicode="&#xac;" 
d="M352 461v-254h-64v192h-259v62h323z" />
    <glyph glyph-name="registered" unicode="&#xae;" horiz-adv-x="494" 
d="M459 465q0 -88 -62 -150t-150 -62t-150 62t-62 150t62 150t150 62q89 0 150.5 -61.5t61.5 -150.5zM429 465q0 76 -53 129t-129 53t-129 -53t-53 -129q0 -75 53 -128.5t129 -53.5t129 53.5t53 128.5zM346 343h-41l-63 96h-43v-96h-33v243h99q32 0 55 -20.5t23 -53.5
q0 -35 -22.5 -53.5t-39.5 -18.5zM309 512q0 19 -13.5 32t-30.5 13h-66v-88h66q17 0 30.5 12.5t13.5 30.5z" />
    <glyph glyph-name="macron" unicode="&#xaf;" horiz-adv-x="254" 
d="M254 591h-254v57h254v-57z" />
    <glyph glyph-name="degree" unicode="&#xb0;" horiz-adv-x="298" 
d="M275 550q0 -52 -37 -89t-90 -37q-52 0 -89 37t-37 89q0 53 37 90t89 37t89.5 -37.5t37.5 -89.5zM220 550q0 29 -21.5 50.5t-50.5 21.5t-49.5 -21.5t-20.5 -50.5t20.5 -49.5t49.5 -20.5t50.5 20.5t21.5 49.5z" />
    <glyph glyph-name="plusminus" unicode="&#xb1;" 
d="M352 306h-128v-149h-67v149h-128v62h128v143h67v-143h128v-62zM352 35h-323v61h323v-61z" />
    <glyph glyph-name="twosuperior" unicode="&#xb2;" horiz-adv-x="281" 
d="M261 421h-232v54q102 120 130 161.5t28 77.5q0 24 -14 39t-37 15q-44 0 -71 -49l-45 42q44 66 120 66q54 0 86.5 -29.5t32.5 -81.5q0 -42 -28 -88t-111 -148h141v-59z" />
    <glyph glyph-name="threesuperior" unicode="&#xb3;" horiz-adv-x="281" 
d="M262 531q0 -53 -33 -85t-90 -32q-83 0 -122 65l48 44q27 -50 71 -50q54 0 54 62q0 33 -17 47.5t-41 14.5q-22 0 -28 -1v59q5 -1 25 -1q56 0 56 56q0 58 -50 58q-42 0 -68 -44l-46 39q41 64 118 64q53 0 85 -27.5t32 -80.5q0 -32 -19.5 -58.5t-47.5 -32.5
q30 -5 51.5 -32.5t21.5 -64.5z" />
    <glyph glyph-name="acute" unicode="&#xb4;" horiz-adv-x="164" 
d="M164 700l-103 -144h-61l79 144h85z" />
    <glyph glyph-name="mu" unicode="&#xb5;" horiz-adv-x="402" 
d="M144 -184h-94v667h94v-357q0 -56 41 -56q23 0 42.5 20.5t30.5 48.5v344h94v-483h-94v63q-16 -31 -46.5 -53t-64.5 -22h-3v-172z" />
    <glyph glyph-name="paragraph" unicode="&#xb6;" horiz-adv-x="449" 
d="M387 -100h-51v716h-86v-716h-51v423q-71 0 -121.5 50.5t-50.5 121.5t50.5 121.5t121.5 50.5h188v-767z" />
    <glyph glyph-name="periodcentered" unicode="&#xb7;" horiz-adv-x="239" 
d="M184 245q0 -26 -19 -45.5t-46 -19.5q-26 0 -45 19.5t-19 45.5t19 45t45 19q27 0 46 -19t19 -45z" />
    <glyph glyph-name="cedilla" unicode="&#xb8;" horiz-adv-x="175" 
d="M82 -193q-46 0 -82 31l20 41q32 -27 60 -27q18 0 31 10.5t13 27.5q0 30 -26 30q-16 0 -27 -13l-37 21l31 83h51l-26 -65q13 10 29 10q24 0 40 -19t16 -48q0 -36 -26.5 -59t-66.5 -23z" />
    <glyph glyph-name="onesuperior" unicode="&#xb9;" horiz-adv-x="232" 
d="M184 421h-73v306l-58 -60l-41 43l109 111h63v-400z" />
    <glyph glyph-name="ordmasculine" unicode="&#xba;" horiz-adv-x="300" 
d="M150 318q-59 0 -91 47.5t-32 117.5t32 117.5t91 47.5q60 0 91.5 -47.5t31.5 -117.5t-31.5 -117.5t-91.5 -47.5zM150 375q50 0 50 108q0 107 -50 107q-51 0 -51 -107q0 -108 51 -108z" />
    <glyph glyph-name="guillemotright" unicode="&#xbb;" horiz-adv-x="359" 
d="M195 243l-90 -180h-75l90 180l-90 177h75zM329 243l-90 -180h-75l90 180l-90 177h75z" />
    <glyph glyph-name="onequarter" unicode="&#xbc;" horiz-adv-x="617" 
d="M469 667l-277 -667h-46l276 667h47zM603 95h-35v-95h-72v95h-145v58l129 247h88v-247h35v-58zM496 153v166l-83 -166h83zM184 267h-73v306l-58 -60l-41 43l109 111h63v-400z" />
    <glyph glyph-name="onehalf" unicode="&#xbd;" horiz-adv-x="651" 
d="M469 667l-277 -667h-46l276 667h47zM631 0h-232v54q102 120 130 162t28 77q0 24 -14 39t-37 15q-44 0 -71 -49l-45 42q44 66 120 66q54 0 86.5 -29.5t32.5 -81.5q0 -42 -28 -88t-111 -148h141v-59zM184 267h-73v306l-58 -60l-41 43l109 111h63v-400z" />
    <glyph glyph-name="threequarters" unicode="&#xbe;" horiz-adv-x="653" 
d="M505 667l-277 -667h-46l276 667h47zM639 95h-35v-95h-72v95h-145v58l129 247h88v-247h35v-58zM532 153v166l-83 -166h83zM262 377q0 -53 -33 -85t-90 -32q-83 0 -122 65l48 44q27 -50 71 -50q54 0 54 62q0 33 -17 47.5t-41 14.5q-22 0 -28 -1v59q5 -1 25 -1q56 0 56 56
q0 58 -50 58q-42 0 -68 -44l-46 39q41 64 118 64q53 0 85 -27.5t32 -80.5q0 -32 -19.5 -58.5t-47.5 -32.5q30 -5 51.5 -32.5t21.5 -64.5z" />
    <glyph glyph-name="questiondown" unicode="&#xbf;" horiz-adv-x="281" 
d="M14 107q0 36 15.5 66t34.5 47.5t34.5 41.5t15.5 49q0 20 -16 38l73 30q21 -28 21 -67q0 -30 -12.5 -56t-28 -41.5t-28 -38t-12.5 -47.5q0 -24 12.5 -42t35.5 -18q29 0 49 26l46 -55q-44 -52 -118 -52q-56 0 -89 33.5t-33 85.5zM73 496q0 26 19.5 45t45.5 19t45 -19
t19 -45t-19 -45t-45 -19t-45.5 19t-19.5 45z" />
    <glyph glyph-name="Agrave" unicode="&#xc0;" horiz-adv-x="398" 
d="M258 728h-61l-103 144h85zM395 0h-107l-23 136h-132l-23 -136h-107l136 667h120zM253 228l-54 320l-54 -320h108z" />
    <glyph glyph-name="Aacute" unicode="&#xc1;" horiz-adv-x="398" 
d="M306 872l-103 -144h-61l79 144h85zM395 0h-107l-23 136h-132l-23 -136h-107l136 667h120zM253 228l-54 320l-54 -320h108z" />
    <glyph glyph-name="Acircumflex" unicode="&#xc2;" horiz-adv-x="398" 
d="M308 728h-53l-57 98l-53 -98h-54l64 144h87zM395 0h-107l-23 136h-132l-23 -136h-107l136 667h120zM253 228l-54 320l-54 -320h108z" />
    <glyph glyph-name="Atilde" unicode="&#xc3;" horiz-adv-x="398" 
d="M242 726q-18 0 -31 13t-18.5 28.5t-14 28.5t-18.5 13q-32 0 -32 -77h-50q0 59 21 96.5t59 37.5q18 0 31 -13t18.5 -28.5t14 -28.5t18.5 -13q31 0 31 77h50q0 -60 -20.5 -97t-58.5 -37zM395 0h-107l-23 136h-132l-23 -136h-107l136 667h120zM253 228l-54 320l-54 -320h108
z" />
    <glyph glyph-name="Adieresis" unicode="&#xc4;" horiz-adv-x="398" 
d="M330 778q0 -22 -16 -38t-38 -16t-38 16t-16 38t16 37.5t38 15.5t38 -15.5t16 -37.5zM176 778q0 -22 -16 -38t-38 -16t-38 16t-16 38t16 37.5t38 15.5t38 -15.5t16 -37.5zM395 0h-107l-23 136h-132l-23 -136h-107l136 667h120zM253 228l-54 320l-54 -320h108z" />
    <glyph glyph-name="Aring" unicode="&#xc5;" horiz-adv-x="398" 
d="M200 693q-36 0 -61.5 25.5t-25.5 60.5q0 36 25.5 61.5t61.5 25.5q35 0 60 -25.5t25 -61.5q0 -35 -25 -60.5t-60 -25.5zM200 737q17 0 29.5 12.5t12.5 29.5q0 18 -12.5 30.5t-29.5 12.5q-18 0 -30.5 -12.5t-12.5 -30.5q0 -17 12.5 -29.5t30.5 -12.5zM395 0h-107l-23 136
h-132l-23 -136h-107l136 667h120zM253 228l-54 320l-54 -320h108z" />
    <glyph glyph-name="AE" unicode="&#xc6;" horiz-adv-x="584" 
d="M548 0h-273v136h-119l-41 -136h-106l221 667h318v-92h-168v-189h161v-92h-161v-202h168v-92zM275 228v320l-94 -320h94z" />
    <glyph glyph-name="Ccedilla" unicode="&#xc7;" horiz-adv-x="412" 
d="M225 -189q-46 0 -82 31l20 41q32 -27 60 -27q18 0 31 10.5t13 27.5q0 30 -26 30q-16 0 -27 -13l-37 21l22 59q-83 15 -123 107t-40 235q0 157 48 251t146 94q35 0 62 -12.5t45 -35.5t28.5 -45t19.5 -52l-84 -31q-12 42 -28 62.5t-43 20.5q-87 0 -87 -252t87 -252
q54 0 72 99l85 -31q-36 -148 -139 -160l-15 -39q13 10 29 10q24 0 40 -19t16 -48q0 -36 -26.5 -59t-66.5 -23z" />
    <glyph glyph-name="Egrave" unicode="&#xc8;" horiz-adv-x="367" 
d="M255 728h-61l-103 144h85zM330 0h-273v667h273v-92h-169v-189h162v-92h-162v-202h169v-92z" />
    <glyph glyph-name="Eacute" unicode="&#xc9;" horiz-adv-x="367" 
d="M303 872l-103 -144h-61l79 144h85zM330 0h-273v667h273v-92h-169v-189h162v-92h-162v-202h169v-92z" />
    <glyph glyph-name="Ecircumflex" unicode="&#xca;" horiz-adv-x="367" 
d="M303 728h-53l-57 98l-53 -98h-54l64 144h87zM330 0h-273v667h273v-92h-169v-189h162v-92h-162v-202h169v-92z" />
    <glyph glyph-name="Edieresis" unicode="&#xcb;" horiz-adv-x="367" 
d="M326 778q0 -22 -16 -38t-38 -16t-38 16t-16 38t16 37.5t38 15.5t38 -15.5t16 -37.5zM172 778q0 -22 -16 -38t-38 -16t-38 16t-16 38t16 37.5t38 15.5t38 -15.5t16 -37.5zM330 0h-273v667h273v-92h-169v-189h162v-92h-162v-202h169v-92z" />
    <glyph glyph-name="Igrave" unicode="&#xcc;" horiz-adv-x="218" 
d="M167 728h-61l-103 144h85zM161 0h-104v667h104v-667z" />
    <glyph glyph-name="Iacute" unicode="&#xcd;" horiz-adv-x="218" 
d="M217 872l-103 -144h-61l79 144h85zM161 0h-104v667h104v-667z" />
    <glyph glyph-name="Icircumflex" unicode="&#xce;" horiz-adv-x="218" 
d="M218 728h-53l-57 98l-53 -98h-54l64 144h87zM161 0h-104v667h104v-667z" />
    <glyph glyph-name="Idieresis" unicode="&#xcf;" horiz-adv-x="218" 
d="M242 777q0 -22 -16 -38t-38 -16t-38 15.5t-16 38.5q0 22 16 37.5t38 15.5t38 -15.5t16 -37.5zM88 777q0 -23 -16 -38.5t-38 -15.5t-38 16t-16 38t16 37.5t38 15.5t38 -15.5t16 -37.5zM161 0h-104v667h104v-667z" />
    <glyph glyph-name="Eth" unicode="&#xd0;" horiz-adv-x="476" 
d="M228 0h-150v291h-60v76h60v300h149q108 0 160.5 -91t52.5 -243q0 -153 -52 -243t-160 -90zM256 291h-74v-199h45q106 0 106 241q0 242 -106 242h-45v-208h74v-76z" />
    <glyph glyph-name="Ntilde" unicode="&#xd1;" horiz-adv-x="463" 
d="M272 726q-18 0 -31 13t-18.5 28.5t-14 28.5t-18.5 13q-32 0 -32 -77h-50q0 59 21 96.5t59 37.5q18 0 31 -13t18.5 -28.5t14 -28.5t18.5 -13q31 0 31 77h50q0 -60 -20.5 -97t-58.5 -37zM407 0h-99l-147 426v-426h-104v667h104l141 -415v415h105v-667z" />
    <glyph glyph-name="Ograve" unicode="&#xd2;" horiz-adv-x="459" 
d="M287 728h-61l-103 144h85zM229 -12q-98 0 -145.5 95t-47.5 250q0 156 47.5 250.5t145.5 94.5q99 0 146.5 -94.5t47.5 -250.5q0 -155 -47.5 -250t-146.5 -95zM229 81q87 0 87 252t-87 252q-86 0 -86 -252t86 -252z" />
    <glyph glyph-name="Oacute" unicode="&#xd3;" horiz-adv-x="459" 
d="M336 872l-103 -144h-61l79 144h85zM229 -12q-98 0 -145.5 95t-47.5 250q0 156 47.5 250.5t145.5 94.5q99 0 146.5 -94.5t47.5 -250.5q0 -155 -47.5 -250t-146.5 -95zM229 81q87 0 87 252t-87 252q-86 0 -86 -252t86 -252z" />
    <glyph glyph-name="Ocircumflex" unicode="&#xd4;" horiz-adv-x="459" 
d="M339 728h-53l-57 98l-53 -98h-54l64 144h87zM229 -12q-98 0 -145.5 95t-47.5 250q0 156 47.5 250.5t145.5 94.5q99 0 146.5 -94.5t47.5 -250.5q0 -155 -47.5 -250t-146.5 -95zM229 81q87 0 87 252t-87 252q-86 0 -86 -252t86 -252z" />
    <glyph glyph-name="Otilde" unicode="&#xd5;" horiz-adv-x="459" 
d="M273 726q-18 0 -31 13t-18.5 28.5t-14 28.5t-18.5 13q-32 0 -32 -77h-50q0 59 21 96.5t59 37.5q18 0 31 -13t18.5 -28.5t14 -28.5t18.5 -13q31 0 31 77h50q0 -60 -20.5 -97t-58.5 -37zM229 -12q-98 0 -145.5 95t-47.5 250q0 156 47.5 250.5t145.5 94.5q99 0 146.5 -94.5
t47.5 -250.5q0 -155 -47.5 -250t-146.5 -95zM229 81q87 0 87 252t-87 252q-86 0 -86 -252t86 -252z" />
    <glyph glyph-name="Odieresis" unicode="&#xd6;" horiz-adv-x="459" 
d="M361 778q0 -22 -16 -38t-38 -16q-23 0 -38.5 16t-15.5 38t16 37.5t38 15.5t38 -15.5t16 -37.5zM207 778q0 -22 -15.5 -38t-38.5 -16q-22 0 -38 16t-16 38t16 37.5t38 15.5t38 -15.5t16 -37.5zM229 -12q-98 0 -145.5 95t-47.5 250q0 156 47.5 250.5t145.5 94.5
q99 0 146.5 -94.5t47.5 -250.5q0 -155 -47.5 -250t-146.5 -95zM229 81q87 0 87 252t-87 252q-86 0 -86 -252t86 -252z" />
    <glyph glyph-name="multiply" unicode="&#xd7;" 
d="M294 187l-104 103l-103 -103l-44 44l104 103l-104 103l44 44l103 -103l104 103l44 -44l-104 -103l104 -103z" />
    <glyph glyph-name="Oslash" unicode="&#xd8;" horiz-adv-x="459" 
d="M229 -12q-63 0 -105 40l-13 -28h-64l37 82q-48 88 -48 251q0 156 47.5 250.5t145.5 94.5q62 0 106 -41l14 30h64l-38 -83q48 -92 48 -251q0 -155 -47.5 -250t-146.5 -95zM143 333q0 -68 5 -109l140 310q-21 51 -59 51q-86 0 -86 -252zM229 81q87 0 87 252q0 59 -6 107
l-140 -309q22 -50 59 -50z" />
    <glyph glyph-name="Ugrave" unicode="&#xd9;" horiz-adv-x="464" 
d="M290 728h-61l-103 144h85zM232 -12q-76 0 -125.5 49.5t-49.5 146.5v483h104v-488q0 -99 71 -99t71 99v488h104v-483q0 -97 -49.5 -146.5t-125.5 -49.5z" />
    <glyph glyph-name="Uacute" unicode="&#xda;" horiz-adv-x="464" 
d="M339 872l-103 -144h-61l79 144h85zM232 -12q-76 0 -125.5 49.5t-49.5 146.5v483h104v-488q0 -99 71 -99t71 99v488h104v-483q0 -97 -49.5 -146.5t-125.5 -49.5z" />
    <glyph glyph-name="Ucircumflex" unicode="&#xdb;" horiz-adv-x="464" 
d="M341 728h-53l-57 98l-53 -98h-54l64 144h87zM232 -12q-76 0 -125.5 49.5t-49.5 146.5v483h104v-488q0 -99 71 -99t71 99v488h104v-483q0 -97 -49.5 -146.5t-125.5 -49.5z" />
    <glyph glyph-name="Udieresis" unicode="&#xdc;" horiz-adv-x="464" 
d="M363 778q0 -22 -16 -38t-38 -16q-23 0 -38.5 16t-15.5 38t16 37.5t38 15.5t38 -15.5t16 -37.5zM209 778q0 -22 -15.5 -38t-38.5 -16q-22 0 -38 16t-16 38t16 37.5t38 15.5t38 -15.5t16 -37.5zM232 -12q-76 0 -125.5 49.5t-49.5 146.5v483h104v-488q0 -99 71 -99t71 99
v488h104v-483q0 -97 -49.5 -146.5t-125.5 -49.5z" />
    <glyph glyph-name="Yacute" unicode="&#xdd;" horiz-adv-x="405" 
d="M312 872l-103 -144h-61l79 144h85zM255 0h-104v279l-154 388h112l94 -285l95 285h110l-153 -388v-279z" />
    <glyph glyph-name="Thorn" unicode="&#xde;" horiz-adv-x="418" 
d="M161 0h-104v667h104v-115h57q87 0 131.5 -59t44.5 -148q0 -88 -44.5 -146.5t-131.5 -58.5h-57v-140zM208 232q38 0 58.5 30.5t20.5 82.5t-20.5 83.5t-58.5 31.5h-47v-228h47z" />
    <glyph glyph-name="germandbls" unicode="&#xdf;" horiz-adv-x="670" 
d="M160 -12q-84 0 -144 57l42 75q39 -48 94 -48q26 0 43 18.5t17 49.5q0 28 -18 51.5t-44 43.5t-52 42.5t-44 58.5t-18 81q0 63 40 104t108 41q71 0 122 -44l-38 -75q-34 35 -78 35q-23 0 -38.5 -16.5t-15.5 -44.5q0 -25 18 -47t44 -42t52.5 -43t44.5 -60t18 -84
q0 -67 -42.5 -110t-110.5 -43zM495 -12q-84 0 -144 57l42 75q39 -48 94 -48q26 0 43 18.5t17 49.5q0 28 -18 51.5t-44 43.5t-52 42.5t-44 58.5t-18 81q0 63 40 104t108 41q71 0 122 -44l-38 -75q-34 35 -78 35q-23 0 -38.5 -16.5t-15.5 -44.5q0 -25 18 -47t44.5 -42
t52.5 -43t44 -60t18 -84q0 -67 -42.5 -110t-110.5 -43z" />
    <glyph glyph-name="agrave" unicode="&#xe0;" horiz-adv-x="347" 
d="M118 550h111l115 -550h-100l-18 110h-105l-18 -110h-101zM214 195l-41 242l-41 -242h82zM232 606h-61l-103 144h85z" />
    <glyph glyph-name="aacute" unicode="&#xe1;" horiz-adv-x="347" 
d="M118 550h111l115 -550h-100l-18 110h-105l-18 -110h-101zM214 195l-41 242l-41 -242h82zM280 750l-103 -144h-61l79 144h85z" />
    <glyph glyph-name="acircumflex" unicode="&#xe2;" horiz-adv-x="347" 
d="M118 550h111l115 -550h-100l-18 110h-105l-18 -110h-101zM214 195l-41 242l-41 -242h82zM282 606h-53l-57 98l-53 -98h-54l64 144h87z" />
    <glyph glyph-name="atilde" unicode="&#xe3;" horiz-adv-x="347" 
d="M118 550h111l115 -550h-100l-18 110h-105l-18 -110h-101zM214 195l-41 242l-41 -242h82zM216 604q-18 0 -31 13t-18.5 28.5t-14 28.5t-18.5 13q-32 0 -32 -77h-50q0 59 21 96.5t59 37.5q18 0 31 -13t18.5 -28.5t14 -28.5t18.5 -13q31 0 31 77h50q0 -60 -20.5 -97
t-58.5 -37z" />
    <glyph glyph-name="adieresis" unicode="&#xe4;" horiz-adv-x="347" 
d="M118 550h111l115 -550h-100l-18 110h-105l-18 -110h-101zM214 195l-41 242l-41 -242h82zM304 665q0 -22 -16 -38t-38 -16t-38 15.5t-16 38.5q0 22 16 37.5t38 15.5t38 -15.5t16 -37.5zM150 665q0 -23 -16 -38.5t-38 -15.5t-38 16t-16 38t16 37.5t38 15.5t38 -15.5
t16 -37.5z" />
    <glyph glyph-name="aring" unicode="&#xe5;" horiz-adv-x="347" 
d="M118 550h111l115 -550h-100l-18 110h-105l-18 -110h-101zM214 195l-41 242l-41 -242h82zM174 602q-36 0 -61.5 25.5t-25.5 60.5q0 36 25.5 61.5t61.5 25.5q35 0 60 -25.5t25 -61.5q0 -35 -25 -60.5t-60 -25.5zM174 646q17 0 29.5 12.5t12.5 29.5q0 18 -12.5 30.5
t-29.5 12.5q-18 0 -30.5 -12.5t-12.5 -30.5q0 -17 12.5 -29.5t30.5 -12.5z" />
    <glyph glyph-name="ae" unicode="&#xe6;" horiz-adv-x="502" 
d="M469 0h-242v110h-96l-33 -110h-101l187 550h285v-85h-144v-141h138v-86h-138v-153h144v-85zM227 195v243l-74 -243h74z" />
    <glyph glyph-name="ccedilla" unicode="&#xe7;" horiz-adv-x="371" 
d="M198 -193q-46 0 -82 31l20 41q32 -27 60 -27q18 0 31 10.5t13 27.5q0 30 -26 30q-16 0 -27 -13l-37 21l23 64q-71 15 -105.5 91t-34.5 192q0 130 43 208.5t132 78.5q58 0 89.5 -34.5t50.5 -92.5l-79 -26q-22 67 -61 67q-75 0 -75 -201t75 -201q43 0 61 71l79 -25
q-17 -56 -45 -91t-80 -40l-17 -43q13 10 29 10q24 0 40 -19t16 -48q0 -36 -26.5 -59t-66.5 -23z" />
    <glyph glyph-name="egrave" unicode="&#xe8;" horiz-adv-x="326" 
d="M293 0h-243v550h243v-85h-145v-141h139v-86h-139v-153h145v-85zM231 606h-61l-103 144h85z" />
    <glyph glyph-name="eacute" unicode="&#xe9;" horiz-adv-x="326" 
d="M293 0h-243v550h243v-85h-145v-141h139v-86h-139v-153h145v-85zM279 750l-103 -144h-61l79 144h85z" />
    <glyph glyph-name="ecircumflex" unicode="&#xea;" horiz-adv-x="326" 
d="M293 0h-243v550h243v-85h-145v-141h139v-86h-139v-153h145v-85zM279 606h-53l-57 98l-53 -98h-54l64 144h87z" />
    <glyph glyph-name="edieresis" unicode="&#xeb;" horiz-adv-x="326" 
d="M293 0h-243v550h243v-85h-145v-141h139v-86h-139v-153h145v-85zM304 665q0 -22 -16 -38t-38 -16t-38 15.5t-16 38.5q0 22 16 37.5t38 15.5t38 -15.5t16 -37.5zM150 665q0 -23 -16 -38.5t-38 -15.5t-38 16t-16 38t16 37.5t38 15.5t38 -15.5t16 -37.5z" />
    <glyph glyph-name="igrave" unicode="&#xec;" horiz-adv-x="195" 
d="M148 0h-98v550h98v-550zM156 606h-61l-103 144h85z" />
    <glyph glyph-name="iacute" unicode="&#xed;" horiz-adv-x="195" 
d="M148 0h-98v550h98v-550zM204 750l-103 -144h-61l79 144h85z" />
    <glyph glyph-name="icircumflex" unicode="&#xee;" horiz-adv-x="195" 
d="M148 0h-98v550h98v-550zM205 606h-53l-57 98l-53 -98h-54l64 144h87z" />
    <glyph glyph-name="idieresis" unicode="&#xef;" horiz-adv-x="195" 
d="M148 0h-98v550h98v-550zM230 665q0 -22 -16 -38t-38 -16t-38 15.5t-16 38.5q0 22 16 37.5t38 15.5t38 -15.5t16 -37.5zM76 665q0 -23 -16 -38.5t-38 -15.5t-38 16t-16 38t16 37.5t38 15.5t38 -15.5t16 -37.5z" />
    <glyph glyph-name="eth" unicode="&#xf0;" horiz-adv-x="433" 
d="M207 0h-137v244h-52v64h52v242h136q95 0 142.5 -75.5t47.5 -200.5t-47 -199.5t-142 -74.5zM225 244h-57v-159h38q45 0 68 50.5t23 138.5q0 91 -23.5 141t-67.5 50h-38v-157h57v-64z" />
    <glyph glyph-name="ntilde" unicode="&#xf1;" horiz-adv-x="409" 
d="M359 0h-95l-116 350v-350h-98v550h101l111 -338v338h97v-550zM245 604q-18 0 -31 13t-18.5 28.5t-14 28.5t-18.5 13q-32 0 -32 -77h-50q0 59 21 96.5t59 37.5q18 0 31 -13t18.5 -28.5t14 -28.5t18.5 -13q31 0 31 77h50q0 -60 -20.5 -97t-58.5 -37z" />
    <glyph glyph-name="ograve" unicode="&#xf2;" horiz-adv-x="416" 
d="M207 -12q-88 0 -131 79t-43 208t43 208t131 79q89 0 132 -79t43 -208t-43 -208t-132 -79zM207 74q75 0 75 201t-75 201q-74 0 -74 -201t74 -201zM266 606h-61l-103 144h85z" />
    <glyph glyph-name="oacute" unicode="&#xf3;" horiz-adv-x="416" 
d="M207 -12q-88 0 -131 79t-43 208t43 208t131 79q89 0 132 -79t43 -208t-43 -208t-132 -79zM207 74q75 0 75 201t-75 201q-74 0 -74 -201t74 -201zM315 750l-103 -144h-61l79 144h85z" />
    <glyph glyph-name="ocircumflex" unicode="&#xf4;" horiz-adv-x="416" 
d="M207 -12q-88 0 -131 79t-43 208t43 208t131 79q89 0 132 -79t43 -208t-43 -208t-132 -79zM207 74q75 0 75 201t-75 201q-74 0 -74 -201t74 -201zM316 606h-53l-57 98l-53 -98h-54l64 144h87z" />
    <glyph glyph-name="otilde" unicode="&#xf5;" horiz-adv-x="416" 
d="M207 -12q-88 0 -131 79t-43 208t43 208t131 79q89 0 132 -79t43 -208t-43 -208t-132 -79zM207 74q75 0 75 201t-75 201q-74 0 -74 -201t74 -201zM249 604q-18 0 -31 13t-18.5 28.5t-14 28.5t-18.5 13q-32 0 -32 -77h-50q0 59 21 96.5t59 37.5q18 0 31 -13t18.5 -28.5
t14 -28.5t18.5 -13q31 0 31 77h50q0 -60 -20.5 -97t-58.5 -37z" />
    <glyph glyph-name="odieresis" unicode="&#xf6;" horiz-adv-x="416" 
d="M207 -12q-88 0 -131 79t-43 208t43 208t131 79q89 0 132 -79t43 -208t-43 -208t-132 -79zM207 74q75 0 75 201t-75 201q-74 0 -74 -201t74 -201zM338 665q0 -22 -16 -38t-38 -16t-38 15.5t-16 38.5q0 22 16 37.5t38 15.5t38 -15.5t16 -37.5zM184 665q0 -23 -16 -38.5
t-38 -15.5t-38 16t-16 38t16 37.5t38 15.5t38 -15.5t16 -37.5z" />
    <glyph glyph-name="divide" unicode="&#xf7;" horiz-adv-x="374" 
d="M239 480q0 -21 -15 -36.5t-36 -15.5t-36 15.5t-15 36.5t15 36t36 15t36 -15t15 -36zM345 306h-316v62h316v-62zM239 191q0 -21 -15 -36t-36 -15t-36 15t-15 36q0 22 15 37t36 15t36 -15t15 -37z" />
    <glyph glyph-name="oslash" unicode="&#xf8;" horiz-adv-x="416" 
d="M207 -12q-59 0 -99 37l-12 -25h-56l35 68q-42 75 -42 207q0 129 43 208t131 79q60 0 102 -40l14 28h55l-37 -72q41 -76 41 -203q0 -129 -43 -208t-132 -79zM133 275q0 -51 4 -87l124 242q-17 46 -54 46q-74 0 -74 -201zM207 74q75 0 75 201q0 48 -4 81l-123 -241
q17 -41 52 -41z" />
    <glyph glyph-name="ugrave" unicode="&#xf9;" horiz-adv-x="414" 
d="M207 -12q-157 0 -157 212v350h98v-387q0 -89 59 -89t59 89v387h98v-350q0 -212 -157 -212zM265 606h-61l-103 144h85z" />
    <glyph glyph-name="uacute" unicode="&#xfa;" horiz-adv-x="414" 
d="M207 -12q-157 0 -157 212v350h98v-387q0 -89 59 -89t59 89v387h98v-350q0 -212 -157 -212zM314 750l-103 -144h-61l79 144h85z" />
    <glyph glyph-name="ucircumflex" unicode="&#xfb;" horiz-adv-x="414" 
d="M207 -12q-157 0 -157 212v350h98v-387q0 -89 59 -89t59 89v387h98v-350q0 -212 -157 -212zM316 606h-53l-57 98l-53 -98h-54l64 144h87z" />
    <glyph glyph-name="udieresis" unicode="&#xfc;" horiz-adv-x="414" 
d="M207 -12q-157 0 -157 212v350h98v-387q0 -89 59 -89t59 89v387h98v-350q0 -212 -157 -212zM337 665q0 -22 -16 -38t-38 -16q-23 0 -38.5 15.5t-15.5 38.5q0 22 16 37.5t38 15.5t38 -15.5t16 -37.5zM183 665q0 -23 -15.5 -38.5t-38.5 -15.5q-22 0 -38 16t-16 38t16 37.5
t38 15.5t38 -15.5t16 -37.5z" />
    <glyph glyph-name="yacute" unicode="&#xfd;" horiz-adv-x="358" 
d="M228 0h-98v230l-132 320h103l78 -222l78 222h103l-132 -320v-230zM285 750l-103 -144h-61l79 144h85z" />
    <glyph glyph-name="thorn" unicode="&#xfe;" horiz-adv-x="363" 
d="M148 0h-98v550h98v-88h44q74 0 113 -49t39 -124t-39 -124t-113 -49h-44v-116zM181 201q31 0 47 24t16 63q0 40 -16 64.5t-47 24.5h-33v-176h33z" />
    <glyph glyph-name="ydieresis" unicode="&#xff;" horiz-adv-x="358" 
d="M228 0h-98v230l-132 320h103l78 -222l78 222h103l-132 -320v-230zM309 665q0 -22 -16 -38t-38 -16q-23 0 -38.5 15.5t-15.5 38.5q0 22 16 37.5t38 15.5t38 -15.5t16 -37.5zM155 665q0 -23 -15.5 -38.5t-38.5 -15.5q-22 0 -38 16t-16 38t16 37.5t38 15.5t38 -15.5
t16 -37.5z" />
    <glyph glyph-name="dotlessi" unicode="&#x131;" horiz-adv-x="198" 
d="M148 0h-98v550h98v-550z" />
    <glyph glyph-name="Lslash" unicode="&#x141;" horiz-adv-x="362" 
d="M18 231v88l50 29v319h104v-259l59 34v-87l-59 -35v-228h169v-92h-273v260z" />
    <glyph glyph-name="lslash" unicode="&#x142;" horiz-adv-x="325" 
d="M18 176v88l46 26v260h98v-203l63 36v-88l-63 -36v-174h145v-85h-243v202z" />
    <glyph glyph-name="OE" unicode="&#x152;" horiz-adv-x="616" 
d="M580 0h-273v57q-31 -69 -97 -69q-61 0 -101 47t-56.5 122t-16.5 176t16.5 176t56.5 121.5t101 46.5q66 0 97 -67v57h273v-92h-168v-189h161v-92h-161v-202h168v-92zM307 185v296q-22 103 -77 103q-87 0 -87 -251q0 -252 87 -252q26 0 46 27t31 77z" />
    <glyph glyph-name="oe" unicode="&#x153;" horiz-adv-x="549" 
d="M516 0h-243v47q-26 -59 -87 -59q-78 0 -115.5 79t-37.5 208t37.5 208t115.5 79q60 0 87 -59v47h243v-86h-145v-140h139v-86h-139v-152h145v-86zM273 163v225q-16 88 -65 88q-75 0 -75 -201t75 -201q49 0 65 89z" />
    <glyph glyph-name="Scaron" unicode="&#x160;" horiz-adv-x="369" 
d="M251 728h-87l-67 144h54l56 -98l54 98h53zM175 -12q-100 0 -159 64l47 82q41 -53 106 -53q33 0 54 24t21 62q0 36 -21.5 66t-52.5 53.5t-62 49.5t-52.5 68.5t-21.5 96.5q0 76 47 126.5t125 50.5q81 0 134 -51l-42 -80q-37 38 -89 38q-30 0 -49.5 -21.5t-19.5 -56.5
q0 -31 21.5 -59t52.5 -52t62 -52t52.5 -72t21.5 -99q0 -81 -48 -133t-127 -52z" />
    <glyph glyph-name="scaron" unicode="&#x161;" horiz-adv-x="335" 
d="M160 -12q-84 0 -144 57l42 75q39 -48 94 -48q26 0 43 18.5t17 49.5q0 28 -18 51.5t-44 43.5t-52 42.5t-44 58.5t-18 81q0 63 40 104t108 41q71 0 122 -44l-38 -75q-34 35 -78 35q-23 0 -38.5 -16.5t-15.5 -44.5q0 -25 18 -47t44 -42t52.5 -43t44.5 -60t18 -84
q0 -67 -42.5 -110t-110.5 -43zM219 606h-87l-67 144h54l56 -98l54 98h53z" />
    <glyph glyph-name="Ydieresis" unicode="&#x178;" horiz-adv-x="405" 
d="M336 778q0 -22 -16 -38t-38 -16t-38 16t-16 38t16 37.5t38 15.5t38 -15.5t16 -37.5zM182 778q0 -22 -16 -38t-38 -16t-38 16t-16 38t16 37.5t38 15.5t38 -15.5t16 -37.5zM255 0h-104v279l-154 388h112l94 -285l95 285h110l-153 -388v-279z" />
    <glyph glyph-name="Zcaron" unicode="&#x17d;" horiz-adv-x="360" 
d="M226 728h-87l-67 144h54l56 -98l54 98h53zM330 0h-299v89l175 486h-175v92h292v-85l-178 -490h185v-92z" />
    <glyph glyph-name="zcaron" unicode="&#x17e;" horiz-adv-x="309" 
d="M284 0h-259v75l143 390h-143v85h253v-73l-143 -392h149v-85zM197 606h-87l-67 144h54l56 -98l54 98h53z" />
    <glyph glyph-name="florin" unicode="&#x192;" horiz-adv-x="348" 
d="M132 -119h-106l72 328h-37v70h53l33 147q32 135 138 135q48 0 73 -27l-40 -77q-8 12 -24 12q-30 0 -44 -58l-29 -132h64v-70h-80z" />
    <glyph glyph-name="circumflex" unicode="&#x2c6;" horiz-adv-x="217" 
d="M217 556h-53l-57 98l-53 -98h-54l64 144h87z" />
    <glyph glyph-name="caron" unicode="&#x2c7;" horiz-adv-x="217" 
d="M154 556h-87l-67 144h54l56 -98l54 98h53z" />
    <glyph glyph-name="breve" unicode="&#x2d8;" horiz-adv-x="244" 
d="M244 622q-45 -61 -122 -61t-122 61l46 35q26 -40 76 -40t76 40z" />
    <glyph glyph-name="dotaccent" unicode="&#x2d9;" horiz-adv-x="134" 
d="M67 566q-22 0 -38 16t-16 38t16 38t38 16q23 0 38.5 -16t15.5 -38t-15.5 -38t-38.5 -16z" />
    <glyph glyph-name="ring" unicode="&#x2da;" horiz-adv-x="172" 
d="M87 552q-36 0 -61.5 25.5t-25.5 60.5q0 36 25.5 61.5t61.5 25.5q35 0 60 -25.5t25 -61.5q0 -35 -25 -60.5t-60 -25.5zM87 596q17 0 29.5 12.5t12.5 29.5q0 18 -12.5 30.5t-29.5 12.5q-18 0 -30.5 -12.5t-12.5 -30.5q0 -17 12.5 -29.5t30.5 -12.5z" />
    <glyph glyph-name="ogonek" unicode="&#x2db;" horiz-adv-x="148" 
d="M106 -111l42 -22q-19 -53 -72 -53q-35 0 -55.5 20t-20.5 59q0 74 74 132l38 -25q-61 -43 -61 -104q0 -38 26 -38q22 0 29 31z" />
    <glyph glyph-name="tilde" unicode="&#x2dc;" horiz-adv-x="243" 
d="M164 554q-18 0 -31 13t-18.5 28.5t-14 28.5t-18.5 13q-32 0 -32 -77h-50q0 59 21 96.5t59 37.5q18 0 31 -13t18.5 -28.5t14 -28.5t18.5 -13q31 0 31 77h50q0 -60 -20.5 -97t-58.5 -37z" />
    <glyph glyph-name="hungarumlaut" unicode="&#x2dd;" horiz-adv-x="252" 
d="M129 700l-79 -144h-50l55 144h74zM252 700l-79 -144h-50l55 144h74z" />
    <glyph glyph-name="pi" unicode="&#x3c0;" horiz-adv-x="394" 
d="M338 0h-95v417h-93v-417h-95v417h-37v83h358v-83h-38v-417z" />
    <glyph glyph-name="endash" unicode="&#x2013;" horiz-adv-x="460" 
d="M430 201h-400v82h400v-82z" />
    <glyph glyph-name="emdash" unicode="&#x2014;" horiz-adv-x="640" 
d="M610 201h-580v82h580v-82z" />
    <glyph glyph-name="quoteleft" unicode="&#x2018;" horiz-adv-x="241" 
d="M51 515q0 48 24.5 91t64.5 71l44 -35q-25 -15 -45.5 -42t-24.5 -52q9 3 16 3q23 0 39 -17t16 -42q0 -26 -18.5 -44.5t-44.5 -18.5q-30 0 -50.5 23t-20.5 63z" />
    <glyph glyph-name="quoteright" unicode="&#x2019;" horiz-adv-x="241" 
d="M189 591q0 -48 -24.5 -91t-64.5 -71l-43 35q25 15 45 42t24 52q-6 -3 -15 -3q-24 0 -40 17t-16 42q0 26 18.5 44.5t44.5 18.5q30 0 50.5 -23t20.5 -63z" />
    <glyph glyph-name="quotesinglbase" unicode="&#x201a;" horiz-adv-x="241" 
d="M189 32q0 -48 -24.5 -91t-64.5 -71l-43 35q25 15 45 42t24 52q-4 -2 -15 -2q-24 0 -40 16.5t-16 41.5q0 26 18.5 44.5t44.5 18.5q30 0 50.5 -23t20.5 -63z" />
    <glyph glyph-name="quotedblleft" unicode="&#x201c;" horiz-adv-x="416" 
d="M52 515q0 48 24 91t64 71l44 -35q-25 -15 -45 -42t-24 -52q6 3 15 3q23 0 39 -17t16 -42q0 -26 -18 -44.5t-44 -18.5q-30 0 -50.5 23t-20.5 63zM227 515q0 48 24.5 91t64.5 71l44 -35q-25 -16 -45 -42.5t-24 -51.5q6 3 15 3q23 0 39 -17t16 -42q0 -26 -18.5 -44.5
t-43.5 -18.5q-30 0 -51 23t-21 63z" />
    <glyph glyph-name="quotedblright" unicode="&#x201d;" horiz-adv-x="416" 
d="M365 591q0 -48 -24.5 -91t-64.5 -71l-44 35q25 16 45 42.5t24 51.5q-6 -3 -15 -3q-23 0 -39 17t-16 42q0 26 18.5 44.5t44.5 18.5q30 0 50.5 -23t20.5 -63zM189 591q0 -48 -24.5 -91t-64.5 -71l-43 35q25 15 45 42t24 52q-6 -3 -15 -3q-24 0 -40 17t-16 42
q0 26 18.5 44.5t44.5 18.5q30 0 50.5 -23t20.5 -63z" />
    <glyph glyph-name="quotedblbase" unicode="&#x201e;" horiz-adv-x="416" 
d="M189 32q0 -48 -24.5 -91t-64.5 -71l-43 35q25 15 45 42t24 52q-4 -2 -15 -2q-24 0 -40 16.5t-16 41.5q0 26 18.5 44.5t44.5 18.5q30 0 50.5 -23t20.5 -63zM365 32q0 -48 -24.5 -91t-64.5 -71l-44 35q25 16 45 42.5t24 51.5q-4 -2 -15 -2q-23 0 -39 16.5t-16 41.5
q0 26 18.5 44.5t44.5 18.5q30 0 50.5 -23t20.5 -63z" />
    <glyph glyph-name="dagger" unicode="&#x2020;" horiz-adv-x="268" 
d="M246 528l-89 4l4 -205h-55l5 205l-89 -4v50l89 -3l-5 102h55l-4 -102l89 3v-50z" />
    <glyph glyph-name="daggerdbl" unicode="&#x2021;" horiz-adv-x="268" 
d="M246 578v-50l-89 4v-206l89 4v-50l-89 3l4 -103h-55l4 103l-88 -3v50l88 -4v206l-88 -4v50l88 -3l-4 102h55l-4 -102z" />
    <glyph glyph-name="bullet" unicode="&#x2022;" horiz-adv-x="358" 
d="M292 242q0 -46 -33 -78.5t-79 -32.5t-79 32.5t-33 78.5t33 79t79 33t79 -33t33 -79z" />
    <glyph glyph-name="ellipsis" unicode="&#x2026;" horiz-adv-x="717" 
d="M184 54q0 -26 -19 -45.5t-46 -19.5q-26 0 -45 19.5t-19 45.5t19 45t45 19q27 0 46 -19t19 -45zM423 54q0 -26 -19 -45.5t-46 -19.5q-26 0 -45 19.5t-19 45.5t19 45t45 19q27 0 46 -19t19 -45zM662 54q0 -26 -19 -45.5t-46 -19.5q-26 0 -45 19.5t-19 45.5t19 45t45 19
q27 0 46 -19t19 -45z" />
    <glyph glyph-name="perthousand" unicode="&#x2030;" horiz-adv-x="705" 
d="M230 424q0 -59 -29 -97.5t-77 -38.5t-77 38.5t-29 97.5t29 98.5t77 39.5t77 -39.5t29 -98.5zM454 126q0 -59 -29.5 -98t-76.5 -39q-48 0 -77 39t-29 98q0 60 29 99t77 39q47 0 76.5 -39.5t29.5 -98.5zM387 549l-247 -549h-46l247 549h46zM169 424q0 38 -12 62t-33 24
t-33.5 -24t-12.5 -62q0 -37 12.5 -60.5t33.5 -23.5t33 23t12 61zM394 126q0 38 -12.5 61.5t-33.5 23.5q-22 0 -34.5 -23.5t-12.5 -61.5q0 -37 13 -61t34 -24t33.5 24t12.5 61zM687 126q0 -59 -29.5 -98t-76.5 -39q-48 0 -77 39t-29 98q0 60 29 99t77 39q47 0 76.5 -39.5
t29.5 -98.5zM627 126q0 38 -12.5 61.5t-33.5 23.5q-22 0 -34.5 -23.5t-12.5 -61.5q0 -37 13 -61t34 -24t33.5 24t12.5 61z" />
    <glyph glyph-name="guilsinglleft" unicode="&#x2039;" horiz-adv-x="225" 
d="M195 63h-75l-90 180l90 177h75l-90 -177z" />
    <glyph glyph-name="guilsinglright" unicode="&#x203a;" horiz-adv-x="225" 
d="M195 243l-90 -180h-75l90 180l-90 177h75z" />
    <glyph glyph-name="fraction" unicode="&#x2044;" horiz-adv-x="125" 
d="M224 667l-277 -667h-46l276 667h47z" />
    <glyph glyph-name="Euro" unicode="&#x20ac;" horiz-adv-x="383" 
d="M234 308h-89v-33v-34h89v-50h-85q13 -117 71 -117q43 0 61 71l79 -25q-18 -60 -49.5 -96t-90.5 -36q-73 0 -115 54.5t-55 148.5h-35v50h31q-1 11 -1 34q0 22 1 33h-31v50h35q12 95 54.5 149.5t115.5 54.5q58 0 89.5 -34.5t50.5 -92.5l-79 -26q-22 67 -61 67
q-58 0 -71 -118h85v-50z" />
    <glyph glyph-name="trademark" unicode="&#x2122;" horiz-adv-x="374" 
d="M339 447h-28v182l-55 -182h-8l-55 182v-182h-28v220h43l44 -157l44 157h43v-220zM129 641h-42v-194h-28v194h-42v26h112v-26z" />
    <glyph glyph-name="Omega" unicode="&#x2126;" horiz-adv-x="447" 
d="M40 0v92h83q-93 91 -93 262q0 151 48.5 237.5t145.5 86.5q96 0 145 -86.5t49 -237.5q0 -170 -94 -262h83v-92h-153v92q21 15 38.5 83t17.5 158q0 251 -86 251q-87 0 -87 -251q0 -91 17.5 -159.5t39.5 -81.5v-92h-154z" />
    <glyph glyph-name="partialdiff" unicode="&#x2202;" horiz-adv-x="402" 
d="M201 -12q-85 0 -127.5 69.5t-42.5 173.5q0 102 37.5 171.5t107.5 69.5q60 0 89 -65q-26 138 -96 236l80 38q121 -188 121 -439q0 -112 -42 -183t-127 -71zM201 71q72 0 72 160q0 158 -72 158t-72 -158q0 -160 72 -160z" />
    <glyph glyph-name="Delta" unicode="&#x2206;" horiz-adv-x="421" 
d="M418 0h-415l147 667h121zM297 92l-87 456l-86 -456h173z" />
    <glyph glyph-name="product" unicode="&#x220f;" horiz-adv-x="477" 
d="M407 -90h-104v665h-129v-665h-104v665h-52v92h441v-92h-52v-665z" />
    <glyph glyph-name="summation" unicode="&#x2211;" horiz-adv-x="347" 
d="M146 575l113 -277l-116 -296h173v-92h-278v96l114 293l-114 276v92h278v-92h-170z" />
    <glyph glyph-name="minus" unicode="&#x2212;" 
d="M352 303h-323v62h323v-62z" />
    <glyph glyph-name="radical" unicode="&#x221a;" horiz-adv-x="465" 
d="M289 0h-68l-68 309l-102 -21l-11 61l158 31l58 -285l128 572h63z" />
    <glyph glyph-name="infinity" unicode="&#x221e;" horiz-adv-x="488" 
d="M141 166q-55 0 -83.5 50t-28.5 119t28.5 119.5t83.5 50.5q67 0 103 -104q15 45 42 74t61 29q55 0 83.5 -50t28.5 -119t-28.5 -119t-83.5 -50q-34 0 -61 29t-42 75q-36 -104 -103 -104zM337 228q29 0 45 29.5t16 77.5q0 49 -16 78.5t-45 29.5q-42 0 -66 -108
q24 -107 66 -107zM151 228q41 0 67 107q-26 108 -67 108q-29 0 -45.5 -29.5t-16.5 -78.5q0 -48 16.5 -77.5t45.5 -29.5z" />
    <glyph glyph-name="integral" unicode="&#x222b;" horiz-adv-x="240" 
d="M46 -100h-29v65h29q17 0 28 13.5t11 33.5v643q0 49 32.5 81t76.5 32h29v-66h-29q-16 0 -27.5 -13t-11.5 -34v-643q0 -49 -32.5 -80.5t-76.5 -31.5z" />
    <glyph glyph-name="approxequal" unicode="&#x2248;" 
d="M29 207v66q37 -20 81 -20q33 0 76.5 17t84.5 17q47 0 81 -15v-65q-35 19 -81 19q-33 0 -77 -17.5t-84 -17.5q-44 0 -81 16zM29 396v65q35 -19 81 -19q33 0 76.5 17t84.5 17q47 0 81 -15v-66q-35 19 -81 19q-33 0 -77 -17t-84 -17q-44 0 -81 16z" />
    <glyph glyph-name="notequal" unicode="&#x2260;" 
d="M113 93h-46l47 114h-85v62h111l54 130h-165v62h191l47 113h47l-47 -113h85v-62h-111l-55 -130h166v-62h-192z" />
    <glyph glyph-name="lessequal" unicode="&#x2264;" 
d="M352 158l-323 143v67l323 143v-73l-249 -104l249 -102v-74zM352 35h-323v61h323v-61z" />
    <glyph glyph-name="greaterequal" unicode="&#x2265;" 
d="M352 301l-323 -143v74l249 102l-249 104v73l323 -143v-67zM352 35h-323v61h323v-61z" />
    <glyph glyph-name="lozenge" unicode="&#x25ca;" horiz-adv-x="375" 
d="M198 0h-21l-158 334l158 333h21l158 -333zM188 41l132 293l-133 292l-132 -292z" />
    <glyph glyph-name="apple" unicode="&#xf8ff;" horiz-adv-x="667" 
d="M224 154v71h-71q-29 0 -49.5 -21t-20.5 -50q0 -30 20.5 -51t49.5 -21t50 21t21 51zM224 442v72q0 29 -20.5 50t-49.5 21q-30 0 -50.5 -21t-20.5 -50q0 -30 20.5 -51t50.5 -21h70zM265 265h137v137h-137v-137zM584 154q0 29 -20.5 50t-49.5 21h-71v-71q0 -30 21 -51
t50 -21t49.5 21t20.5 51zM584 514q0 29 -20.5 50t-49.5 21t-50 -21t-21 -50v-72h71q29 0 49.5 21.5t20.5 50.5zM625 154q0 -46 -32.5 -79t-78.5 -33t-79 33t-33 79v71h-137v-71q0 -46 -33 -79t-79 -33t-78.5 33t-32.5 79t32.5 78.5t78.5 32.5h71v137h-70q-46 0 -79 33
t-33 79t33 78.5t79 32.5t78.5 -32.5t32.5 -78.5v-72h137v72q0 46 33 78.5t79 32.5t78.5 -32.5t32.5 -78.5t-32.5 -79t-78.5 -33h-71v-137h71q46 0 78.5 -32.5t32.5 -78.5z" />
    </font>
</defs>
</svg>
